<svg id="Rapha" xmlns="http://www.w3.org/2000/svg" viewBox="0 0 510 210">
  <defs>
    <style>
      .cls-1, .cls-2 {
        fill: #232a2a;
      }

      .cls-1 {
        fill-rule: evenodd;
      }
    </style>
  </defs>
  <title>ptnr_logo_rapha</title>
  <g>
    <path class="cls-1" d="M380.2,112.4a5.82,5.82,0,1,0,5.8,5.84A5.84,5.84,0,0,0,380.2,112.4Zm0,10.27a4.43,4.43,0,1,1,4.42-4.43A4.43,4.43,0,0,1,380.2,122.67Z"/>
    <path class="cls-1" d="M382.37,117.32v-.48c0-.84-.49-1.68-2-1.68h-1.63a.7.7,0,0,0-.7.69v4.79a.69.69,0,0,0,.7.7.71.71,0,0,0,.71-.7V119h.58l.88,1.88a.66.66,0,0,0,.65.46.69.69,0,0,0,.68-.7.52.52,0,0,0-.07-.31l-.78-1.55A1.46,1.46,0,0,0,382.37,117.32Zm-1.39-.07c0,.29-.18.55-.72.55h-.78V116.4h.87c.46,0,.62.26.62.55Z"/>
    <path class="cls-2" d="M365.55,114.75C364,113.1,362,113.58,360,115c-1.41,1-3.76,1.07-2.46-4.45,1.24-5.24,5.76-13.8,6.41-15.34.9-2.14-.26-4.77-4.11-5.09a6.59,6.59,0,0,0-4.91,1.58A11.26,11.26,0,0,0,346,87.81c-7.11,0-16.91,5.43-22.66,14.18-3.16,4.74-7.5,9.88-12.38,13.09-1.5,1-3.23,1.53-4.31,1.15-2.21-.81-1.59-4.07,3.19-9.5,7.65-8.73,9.83-15.29,5.39-19.18-3-2.64-8-2.94-13.06-.56A35.73,35.73,0,0,0,291,95.11c7-14.53,15.78-31.52,21.61-41.06,2.69-4.45,2.69-8.27-1.12-8.94-3.35-.58-6.75,1-9.47,6.73C295.73,65,290.58,76.6,284.45,89.67v0c-4,8-11.26,19.12-20.83,25.44-1.5,1-3.23,1.53-4.31,1.15-2.24-.81-1.58-4.07,3.17-9.5,7.65-8.73,9.84-15.29,5.39-19.18-3-2.64-8-2.94-13.08-.56-6.64,3.12-9.71,6.59-13.18,10.16,2.92-4.44,2.58-8.53-.21-9.42-3.66-1.18-5.56.26-9.06,10.14-1.77,4.83-6.59,14-13.44,17.13-1.58.72-4.48,1.07-3.16-4.45,1.25-5.24,5.75-13.8,6.4-15.34.9-2.14-.25-4.77-4.09-5.09a6.53,6.53,0,0,0-4.91,1.58,11.32,11.32,0,0,0-8.92-3.88c-9.28,0-23.16,9.25-26.59,23.06a11.33,11.33,0,0,1-8.68,5c-7.09.19-11-6.08-12.63-13.37,15.94-3.14,30.94-12,33.85-26,2.75-13.25-6.33-24.72-22.66-24.38-22.46.47-37.62,16.67-41.24,23.55-2.54,4.8-.21,8.66,3,8.5a8.85,8.85,0,0,0,8-6.32c2.17-7.49,10.69-16.11,25.15-17.32,10.94-.92,17.15,6,16.14,15-1.25,11-12,17.26-23.1,20.09l0-.7c0-3.38-.31-5.68-2.59-6.42a2.69,2.69,0,0,0-1.68-2.68c-1.87-.84-4.42-.74-6.54,2.48-7.73,11.91-11.49,17.45-19,27.29-3.44,4.55-3.54,9.27-.08,10.25s6.86-.46,9.72-5c3.79-6.06,7-12,9.74-17.06.75,0,1.53-.06,2.28-.1.49,9.94,5.52,23.64,19.18,21.41a20.94,20.94,0,0,0,11.17-6c2,5.58,8.56,6.9,15.17,3.78s9.7-6.58,13.17-10.17c-4,10.23,3.68,17.74,15.72,8l1.48-1.22c-6,12.6-13.32,26.63-17.84,36.23-3.08,6.53-1.65,9.5,2.19,9.82s6.08-1.7,8.39-7.23c3.11-7.45,9.18-23.64,18.72-42.21,9.11-17.75,20.82-22.11,23.12-20.6,2.46,1.59-1,5.53-6.19,12.15-5.69,7.21-5.43,13.17-2.68,15.64,3.46,3.13,9.68,3.69,17.4-2.57a57.28,57.28,0,0,0,5.48-5c-2.42,4.84-3.38,8.43-.1,9.74,2.19.87,5.1.24,6.58-3a80.27,80.27,0,0,1,12.45-19c6.85-7.42,13-8.79,14.42-7.88,2.44,1.59-1,5.53-6.21,12.15-5.68,7.21-5.41,13.17-2.68,15.64,3.47,3.13,9.68,3.69,17.41-2.57a58.59,58.59,0,0,0,5.18-4.69c.39,8.12,8,10.47,15.73,6.85,6.63-3.13,9.71-6.58,13.2-10.17-3.56,10.75,6.33,17.15,16.08,8.29C366.32,118.68,366.68,115.9,365.55,114.75ZM195,113.53c-4,2.46-9.14,1.51-6.77-5.68,2.23-6.72,8.1-10.62,11.7-10.62,3.8,0,5.65,2.36,6.73,4.35A36.66,36.66,0,0,1,195,113.53Zm141.75,0c-3.95,2.46-9.13,1.51-6.76-5.68,2.24-6.72,7.81-10.62,11.42-10.62a7.78,7.78,0,0,1,7,4.36A36.67,36.67,0,0,1,336.78,113.53Z"/>
  </g>
</svg>
