<svg id="TREK" xmlns="http://www.w3.org/2000/svg" viewBox="0 0 510 210">
  <defs>
    <style>
      .cls-1 {
        fill: #231815;
      }

      .cls-2 {
        fill: #e62310;
      }
    </style>
  </defs>
  <title>ptnr_logo_trek</title>
  <g>
    <polygon class="cls-1" points="230.22 89.31 164.7 89.31 162.39 95.68 184.97 95.69 175.19 122.69 197.5 122.67 207.27 95.7 227.9 95.7 230.22 89.31"/>
    <polygon class="cls-1" points="394.68 89.3 371.11 89.3 359.02 122.72 382.57 122.72 394.68 89.3"/>
    <polygon class="cls-1" points="390.38 104.86 404.36 122.72 431.56 122.72 415.92 105.05 443 89.3 415.39 89.3 390.38 104.86"/>
    <path class="cls-1" d="M363.63,95.7l2.32-6.4H305.64l-8.3,22.95a4.28,4.28,0,0,0,.49,4.39c.36.43,3.06,3.47,3.61,4.1a5.14,5.14,0,0,0,4.09,2h48.32l2.31-6.37H322.39c-2.07,0-3-1.56-2.49-3.09l1.53-4.21h37.36l2.31-6.39H323.72l2.53-7Z"/>
    <path class="cls-1" d="M294.36,89.3h-60l-12.1,33.42h22.95l9.73-27H272.1a2,2,0,0,1,2.15,2.68c-.42,1.37-1,3-1.44,4a4.08,4.08,0,0,1-4,2.45h-16l14,17.84h26.43L281.3,109.35h7.12a6.11,6.11,0,0,0,6.11-4c1-2.51,3.2-8.7,3.92-10.74,1.18-3.34-.73-5.33-4.09-5.33"/>
    <path class="cls-2" d="M134.63,98.93a112.63,112.63,0,0,0,2.45-30.2l-.07-.87-.86-.23a138.65,138.65,0,0,0-22.44-3.25c1.59,20.79,7.59,36.32,16.3,49.76a94,94,0,0,0,4.63-15.21"/>
    <path class="cls-2" d="M95.28,64.19q-.35,6.33-1.17,12.65A164.43,164.43,0,0,1,89.5,99.75a145.17,145.17,0,0,1-8,22c-.4.88-.82,1.76-1.24,2.63a67.31,67.31,0,0,0,8,11.22c5.45-18.89,9.08-41.88,9.78-71.48-.93,0-1.84.06-2.74.11"/>
    <path class="cls-2" d="M124.13,121.72a145.37,145.37,0,0,1-8-22,164.68,164.68,0,0,1-4.62-22.92q-.83-6.31-1.17-12.65c-.9,0-1.81-.08-2.74-.1.71,29.6,4.33,52.59,9.78,71.48a67.38,67.38,0,0,0,8-11.21q-.64-1.31-1.24-2.63"/>
    <path class="cls-2" d="M107.27,127.26c-1.38-12.29-2.12-24.64-2.54-37q-.44-13.17-.53-26.28h-2.81q-.09,13.13-.52,26.28c-.42,12.33-1.16,24.68-2.54,37q-.9,7.92-2.18,15.79a60.16,60.16,0,0,0,6,4.14l.64.38h0l.63-.38a59.84,59.84,0,0,0,6-4.14q-1.28-7.87-2.18-15.79"/>
    <path class="cls-2" d="M69.36,67.66l-.87.23-.08.89a113.53,113.53,0,0,0,2.47,30.51,94.46,94.46,0,0,0,4.67,15.37C84.35,101.07,90.41,85.39,92,64.38a140.62,140.62,0,0,0-22.66,3.28"/>
  </g>
</svg>
