<svg id="CANYON" xmlns="http://www.w3.org/2000/svg" viewBox="0 0 510 210">
  <defs>
    <style>
      .cls-1 {
        fill: #231815;
      }
    </style>
  </defs>
  <title>ptnr_logo_canyon</title>
  <g>
    <path class="cls-1" d="M80.15,78.81c-10.56,0-12.33,8.73-3.48,19.5l15,18.16C97,123,102,128.12,104.2,129.86a.31.31,0,0,0,.21.07h15.17c-5.2-3.32-11.49-9.38-16.07-14.69L86.6,94.92c-3.6-4.39-3-6.72,1.17-6.15,2.11.29,7.89,3.1,14.25,8.95h13C104.88,86.25,93,78.81,80.15,78.81Z"/>
    <path class="cls-1" d="M125.13,130.35h10.43a25.7,25.7,0,0,0-5.88-13H118.21C122.33,122.33,124.2,126.15,125.13,130.35Z"/>
    <polygon class="cls-1" points="299.96 116.35 283.25 79.84 272.87 79.84 285.33 104.84 284.99 104.84 251.68 79.84 236.93 79.84 289.11 118.44 299.13 130.34 311.75 130.34 299.96 116.35"/>
    <polygon class="cls-1" points="207.37 79.84 248.3 127.8 247.96 127.79 188.35 79.84 176.27 79.84 218.28 129.91 230.28 129.91 205.72 102.7 206.06 102.7 240.12 130.34 260.98 130.34 218.62 79.84 207.37 79.84"/>
    <polygon class="cls-1" points="386.39 79.84 427.31 127.8 426.97 127.79 367.36 79.84 355.28 79.84 397.3 129.91 409.29 129.91 385.18 102.7 385.07 102.7 419.14 130.34 440 130.34 397.63 79.84 386.39 79.84"/>
    <polygon class="cls-1" points="129.92 79.84 155.72 129.91 166.47 129.91 146.89 93.38 147.22 93.38 185.04 130.34 198.59 130.34 145.77 79.84 129.92 79.84"/>
    <path class="cls-1" d="M337.72,115.21c4.59,5.32,10.89,11.38,16.09,14.7H338.62a.32.32,0,0,1-.21-.06c-2.21-1.74-7.18-6.86-12.58-13.41l-15-18.18c-8.86-10.78-7.09-19.52,3.48-19.52,13.86,0,26.6,8.64,37.29,21.65l7.73,9.4c7.32,8.9,9.59,14.39,10.68,20.55H360.1c-.93-4.2-2.8-8-6.92-13l-11-13.33c-8.42-10.21-17.5-14.92-20.27-15.3-4.17-.57-4.77,1.77-1.17,6.16Z"/>
  </g>
</svg>
