<svg id="IRC" xmlns="http://www.w3.org/2000/svg" viewBox="0 0 510 210">
  <defs>
    <style>
      .cls-1 {
        fill: #231815;
      }
    </style>
  </defs>
  <title>ptnr_logo_irc</title>
  <g>
    <g>
      <path class="cls-1" d="M111.08,138.3a.29.29,0,0,1,.29-.2h2.75c.15,0,.19.07.14.2l-5.12,13.32a.29.29,0,0,1-.29.2H106.1c-.15,0-.19-.07-.14-.2Z"/>
      <path class="cls-1" d="M122.54,151.82c-.14,0-.19-.07-.14-.2l2.16-5.63a1.72,1.72,0,0,0,.1-1.3c-.14-.32-.49-.49-1-.49a2.21,2.21,0,0,0-1.4.49,3,3,0,0,0-.93,1.3l-2.16,5.63a.29.29,0,0,1-.29.2h-2.59c-.14,0-.19-.07-.14-.2l3.59-9.36a.29.29,0,0,1,.29-.2h2.59c.14,0,.19.07.14.2l-.26.69h0a5,5,0,0,1,1.33-.79,4.7,4.7,0,0,1,1.8-.32,3.45,3.45,0,0,1,1.43.26,1.77,1.77,0,0,1,.84.75,2.15,2.15,0,0,1,.24,1.15,4.77,4.77,0,0,1-.34,1.47l-2.36,6.16a.29.29,0,0,1-.29.2Z"/>
      <path class="cls-1" d="M136.51,152a4.24,4.24,0,0,1-2.6-.71,2.26,2.26,0,0,1-.88-2,6.4,6.4,0,0,1,.16-1.08,9.67,9.67,0,0,1,.41-1.28,11.36,11.36,0,0,1,.58-1.28,10.12,10.12,0,0,1,.67-1.08,6.36,6.36,0,0,1,2.45-2,7.21,7.21,0,0,1,3.15-.71,4.25,4.25,0,0,1,2.61.71,2.26,2.26,0,0,1,.88,2,6.43,6.43,0,0,1-.16,1.08,9.51,9.51,0,0,1-.41,1.28,11.51,11.51,0,0,1-.58,1.28,10.09,10.09,0,0,1-.67,1.08,6.35,6.35,0,0,1-2.45,2A7.23,7.23,0,0,1,136.51,152Zm.91-2.38a2.4,2.4,0,0,0,2-1,5.51,5.51,0,0,0,.42-.7,10.51,10.51,0,0,0,.42-1,10.12,10.12,0,0,0,.33-1,3.91,3.91,0,0,0,.12-.7q0-1.05-1.22-1.05a2.4,2.4,0,0,0-2,1.05,6.08,6.08,0,0,0-.42.7c-.12.24-.26.56-.42,1a9.7,9.7,0,0,0-.33,1,3.58,3.58,0,0,0-.12.7Q136.17,149.66,137.42,149.66Z"/>
      <path class="cls-1" d="M154.23,151.82c-.15,0-.19-.07-.14-.2l.27-.71h0a5.21,5.21,0,0,1-1.36.82,4.58,4.58,0,0,1-1.75.31,3.23,3.23,0,0,1-1.42-.27A1.76,1.76,0,0,1,149,151a2.2,2.2,0,0,1-.23-1.15,4.61,4.61,0,0,1,.33-1.45l2.36-6.16a.29.29,0,0,1,.29-.2h2.59c.14,0,.19.07.14.2l-2.16,5.63a1.72,1.72,0,0,0-.09,1.29c.14.33.47.49,1,.49a2.12,2.12,0,0,0,1.38-.48,3.06,3.06,0,0,0,.91-1.29l2.16-5.63a.29.29,0,0,1,.29-.2h2.59c.15,0,.19.07.14.2l-3.6,9.36a.29.29,0,0,1-.29.2Z"/>
      <path class="cls-1" d="M168.38,152a4.26,4.26,0,0,1-2.71-.73,2.34,2.34,0,0,1-.85-2.06,5.71,5.71,0,0,1,.12-1,8.74,8.74,0,0,1,.41-1.31,11.5,11.5,0,0,1,.59-1.32,7.81,7.81,0,0,1,.65-1,6.49,6.49,0,0,1,2.42-2,7,7,0,0,1,3.14-.72,4.05,4.05,0,0,1,2.63.73,2.37,2.37,0,0,1,.84,2c0,.16,0,.33,0,.52a6,6,0,0,1-.13.62c-.06.23-.14.49-.24.8s-.24.66-.4,1.08a.3.3,0,0,1-.31.2h-6.31a.17.17,0,0,0-.18.12,1.55,1.55,0,0,0-.08.55,1.06,1.06,0,0,0,.4,1,2.07,2.07,0,0,0,1.25.32,4.39,4.39,0,0,0,1.44-.23,5.65,5.65,0,0,0,1.28-.64c.17-.09.27-.09.3,0l.95,1.25c.08.09.05.19-.09.28a9.07,9.07,0,0,1-2.34,1.19A8.42,8.42,0,0,1,168.38,152Zm4-6.14a.18.18,0,0,0,.18-.12,3,3,0,0,0,.12-.39c0-.11,0-.23.05-.33a.9.9,0,0,0-.33-.79,1.57,1.57,0,0,0-1-.28,2.7,2.7,0,0,0-1.21.28,2.52,2.52,0,0,0-.94.79l-.2.33a3,3,0,0,0-.18.39c0,.08,0,.12.08.12Z"/>
      <path class="cls-1" d="M197.3,151.82c-.16,0-.24-.07-.25-.2l-.6-5h-2a.18.18,0,0,0-.18.12l-1.88,4.91a.29.29,0,0,1-.29.2h-2.75c-.15,0-.19-.07-.14-.2l5.11-13.32a.29.29,0,0,1,.29-.2h5.86a5.29,5.29,0,0,1,1.92.31,2.85,2.85,0,0,1,1.24.88,2.4,2.4,0,0,1,.5,1.35,4,4,0,0,1-.3,1.71,6,6,0,0,1-1.58,2.32,7.11,7.11,0,0,1-2.5,1.49l.82,5.41a.22.22,0,0,1-.07.17.25.25,0,0,1-.18.07Zm.75-7.75a2.92,2.92,0,0,0,1.63-.46,2.54,2.54,0,0,0,1-1.25,1.2,1.2,0,0,0-.07-1.23,1.52,1.52,0,0,0-1.27-.46h-2.59a.17.17,0,0,0-.18.12l-1.22,3.17c0,.08,0,.12.09.12Z"/>
      <path class="cls-1" d="M213,151.82c-.14,0-.19-.07-.14-.2l.27-.71h0a5.24,5.24,0,0,1-1.36.82A4.57,4.57,0,0,1,210,152a3.24,3.24,0,0,1-1.42-.27,1.77,1.77,0,0,1-.81-.76,2.21,2.21,0,0,1-.23-1.15,4.65,4.65,0,0,1,.33-1.45l2.36-6.16a.29.29,0,0,1,.3-.2h2.59c.15,0,.19.07.14.2l-2.16,5.63a1.74,1.74,0,0,0-.09,1.29q.21.49,1,.49a2.12,2.12,0,0,0,1.38-.48,3,3,0,0,0,.91-1.29l2.16-5.63a.29.29,0,0,1,.29-.2h2.59c.14,0,.19.07.14.2l-3.6,9.36a.29.29,0,0,1-.29.2Z"/>
      <path class="cls-1" d="M228.39,152a3.27,3.27,0,0,1-1.59-.31,1.49,1.49,0,0,1-.72-.82h0l-.27.71a.29.29,0,0,1-.29.2H222.9c-.15,0-.19-.07-.14-.2l5.11-13.32a.29.29,0,0,1,.29-.2h2.6c.15,0,.19.07.14.2L229.11,143h0a4.41,4.41,0,0,1,1.35-.82,5,5,0,0,1,1.83-.31,3,3,0,0,1,2,.59,2.09,2.09,0,0,1,.65,1.76,6.55,6.55,0,0,1-.18,1.19,13.91,13.91,0,0,1-.52,1.57,15.93,15.93,0,0,1-.69,1.56,10.26,10.26,0,0,1-.74,1.2,5.87,5.87,0,0,1-2,1.75A5.22,5.22,0,0,1,228.39,152Zm-.06-2.38a2.4,2.4,0,0,0,2-1,4.12,4.12,0,0,0,.4-.66c.13-.25.27-.59.44-1a10.49,10.49,0,0,0,.35-1,2.51,2.51,0,0,0,.1-.65c0-.7-.37-1.05-1.22-1.05a2.34,2.34,0,0,0-2,1.05,4,4,0,0,0-.4.65q-.19.37-.44,1c-.16.43-.28.77-.35,1a2.63,2.63,0,0,0-.1.66Q227.1,149.66,228.33,149.66Z"/>
      <path class="cls-1" d="M244.56,152a3.26,3.26,0,0,1-1.59-.31,1.5,1.5,0,0,1-.72-.82h0l-.27.71a.29.29,0,0,1-.29.2h-2.59c-.15,0-.19-.07-.14-.2L244,138.3a.29.29,0,0,1,.3-.2h2.59c.15,0,.19.07.14.2L245.29,143h0a4.4,4.4,0,0,1,1.35-.82,5,5,0,0,1,1.83-.31,3,3,0,0,1,2,.59,2.08,2.08,0,0,1,.65,1.76,6.56,6.56,0,0,1-.17,1.19,13.46,13.46,0,0,1-.52,1.57,15.71,15.71,0,0,1-.69,1.56,10.27,10.27,0,0,1-.74,1.2,5.87,5.87,0,0,1-2,1.75A5.22,5.22,0,0,1,244.56,152Zm-.06-2.38a2.4,2.4,0,0,0,2-1,4.33,4.33,0,0,0,.4-.66c.13-.25.27-.59.44-1s.28-.77.35-1a2.75,2.75,0,0,0,.1-.65c0-.7-.37-1.05-1.22-1.05a2.34,2.34,0,0,0-2,1.05,4,4,0,0,0-.4.65q-.19.37-.43,1a10.7,10.7,0,0,0-.35,1,2.57,2.57,0,0,0-.1.66Q243.27,149.66,244.51,149.66Z"/>
      <path class="cls-1" d="M259.46,152a4.26,4.26,0,0,1-2.7-.73,2.35,2.35,0,0,1-.86-2.06,5.58,5.58,0,0,1,.12-1,8.72,8.72,0,0,1,.41-1.31,11.76,11.76,0,0,1,.59-1.32,8.12,8.12,0,0,1,.65-1,6.47,6.47,0,0,1,2.42-2,7,7,0,0,1,3.14-.72,4,4,0,0,1,2.63.73,2.36,2.36,0,0,1,.84,2,3.78,3.78,0,0,1,0,.52,5.61,5.61,0,0,1-.13.62c-.06.23-.14.49-.24.8s-.23.66-.39,1.08a.31.31,0,0,1-.32.2h-6.31a.18.18,0,0,0-.18.12,1.54,1.54,0,0,0-.08.55,1.06,1.06,0,0,0,.4,1,2.08,2.08,0,0,0,1.25.32,4.42,4.42,0,0,0,1.45-.23,5.66,5.66,0,0,0,1.28-.64c.17-.09.27-.09.3,0l.95,1.25c.08.09,0,.19-.09.28a9,9,0,0,1-2.34,1.19A8.41,8.41,0,0,1,259.46,152Zm4-6.14a.17.17,0,0,0,.18-.12,2.65,2.65,0,0,0,.12-.39c0-.11,0-.23.05-.33a.9.9,0,0,0-.33-.79,1.57,1.57,0,0,0-1-.28,2.69,2.69,0,0,0-1.21.28,2.49,2.49,0,0,0-.94.79l-.2.33a3.15,3.15,0,0,0-.18.39c0,.08,0,.12.09.12Z"/>
      <path class="cls-1" d="M270.87,151.82c-.14,0-.19-.07-.14-.2l3.59-9.36a.29.29,0,0,1,.29-.2h2.59c.14,0,.19.07.14.2l-.32.83h0a4.25,4.25,0,0,1,1.41-.92,4.7,4.7,0,0,1,1.79-.33,2.82,2.82,0,0,1,.95.15,1.49,1.49,0,0,1,.67.43c.07.08.06.17,0,.28l-2,2.06a.29.29,0,0,1-.32,0,2,2,0,0,0-1.34-.44,2.25,2.25,0,0,0-1.46.58,4,4,0,0,0-1,1.53l-2,5.15a.29.29,0,0,1-.29.2Z"/>
      <path class="cls-1" d="M294.89,148.67a3.54,3.54,0,0,1,0-.66,6.61,6.61,0,0,1,.17-.75q.12-.41.31-1t.49-1.34c.2-.53.38-1,.54-1.34s.3-.69.44-1a8,8,0,0,1,.4-.74c.13-.22.29-.44.46-.67a8.09,8.09,0,0,1,2.91-2.53,8,8,0,0,1,3.62-.84,4.54,4.54,0,0,1,2.88.8,2.9,2.9,0,0,1,1.07,2.25c0,.12,0,.2-.2.24l-2.74,1c-.15.07-.24,0-.26-.1a1.86,1.86,0,0,0-.43-1.11,1.65,1.65,0,0,0-1.31-.44,3.13,3.13,0,0,0-1.58.4,3.86,3.86,0,0,0-1.21,1.11,4.38,4.38,0,0,0-.26.39c-.08.14-.18.32-.28.53s-.22.48-.35.81-.29.73-.48,1.21-.34.89-.45,1.21-.21.59-.27.81a5.35,5.35,0,0,0-.13.53,2.4,2.4,0,0,0,0,.39,1.41,1.41,0,0,0,.36,1.11,1.71,1.71,0,0,0,1.26.4,3.1,3.1,0,0,0,1.65-.44,5.32,5.32,0,0,0,1.28-1.11c.12-.13.24-.17.34-.1l2,1c.13,0,.13.12,0,.24a8.37,8.37,0,0,1-2.8,2.25,7.78,7.78,0,0,1-3.5.8,4.6,4.6,0,0,1-3-.84A2.91,2.91,0,0,1,294.89,148.67Z"/>
      <path class="cls-1" d="M314.72,152a4.24,4.24,0,0,1-2.6-.71,2.26,2.26,0,0,1-.88-2,6.7,6.7,0,0,1,.16-1.08,9.85,9.85,0,0,1,.41-1.28,11.59,11.59,0,0,1,.58-1.28,10.12,10.12,0,0,1,.68-1.08,6.36,6.36,0,0,1,2.45-2,7.24,7.24,0,0,1,3.15-.71,4.25,4.25,0,0,1,2.6.71,2.26,2.26,0,0,1,.88,2,6.32,6.32,0,0,1-.16,1.08,9.44,9.44,0,0,1-.4,1.28,12,12,0,0,1-.58,1.28,10.57,10.57,0,0,1-.67,1.08,6.34,6.34,0,0,1-2.45,2A7.21,7.21,0,0,1,314.72,152Zm.92-2.38a2.39,2.39,0,0,0,2-1,5.89,5.89,0,0,0,.42-.7q.18-.35.42-1a9.3,9.3,0,0,0,.33-1,3.66,3.66,0,0,0,.12-.7q0-1.05-1.22-1.05a2.39,2.39,0,0,0-2,1.05,5.36,5.36,0,0,0-.42.7,10.33,10.33,0,0,0-.42,1q-.24.63-.33,1a3.67,3.67,0,0,0-.12.7Q314.38,149.66,315.63,149.66Z"/>
      <path class="cls-1" d="M326.92,149.2a.29.29,0,0,1,.29-.2h2.59c.14,0,.19.07.14.2l-.93,2.42a.3.3,0,0,1-.3.2h-2.59c-.14,0-.19-.07-.14-.2Z"/>
      <path class="cls-1" d="M336.9,149.2a.29.29,0,0,1,.29-.2h2.44c.14,0,.19.07.14.2l-.94,2.44a.91.91,0,0,1-.35.4l-2.84,1.82a.76.76,0,0,1-.38.14c-.14,0-.18-.07-.13-.22Z"/>
      <path class="cls-1" d="M351,138.3a.29.29,0,0,1,.3-.2H354c.14,0,.19.07.14.2L350,149.08c0,.08,0,.12.08.12h6.49c.14,0,.19.07.14.2l-.86,2.22a.29.29,0,0,1-.29.2H346c-.14,0-.19-.07-.14-.2Z"/>
      <path class="cls-1" d="M365.29,151.94c-1.21,0-2-.26-2.27-.79a3,3,0,0,1,.19-2.46l1.7-4.44c0-.08,0-.12-.08-.12h-.65c-.14,0-.19-.07-.14-.2l.64-1.67a.29.29,0,0,1,.29-.2h.65a.18.18,0,0,0,.18-.12l1-2.62a.29.29,0,0,1,.3-.2h2.59c.15,0,.19.07.14.2l-1,2.62c0,.08,0,.12.08.12h1.32c.14,0,.19.07.14.2l-.64,1.67a.29.29,0,0,1-.29.2h-1.32a.18.18,0,0,0-.17.12l-1.66,4.34q-.21.55-.08.76c.09.14.3.21.64.21h.51c.14,0,.19.07.14.2l-.76,2a.29.29,0,0,1-.29.2Z"/>
      <path class="cls-1" d="M379.44,151.82c-.14,0-.19-.07-.14-.2l.27-.71h0a4.47,4.47,0,0,1-1.35.82,5,5,0,0,1-1.83.31,3,3,0,0,1-2-.6,2.11,2.11,0,0,1-.65-1.75,6.48,6.48,0,0,1,.18-1.2,13.24,13.24,0,0,1,.51-1.56,14.64,14.64,0,0,1,.69-1.57,10.05,10.05,0,0,1,.74-1.19,5.77,5.77,0,0,1,2-1.76,5.26,5.26,0,0,1,2.45-.59,3.26,3.26,0,0,1,1.59.31,1.52,1.52,0,0,1,.73.82h0l1.79-4.66a.29.29,0,0,1,.29-.2h2.59c.14,0,.19.07.14.2l-5.11,13.32a.29.29,0,0,1-.29.2Zm-1.18-2.16a2.38,2.38,0,0,0,2-1,4.22,4.22,0,0,0,.4-.66q.18-.37.43-1c.17-.43.28-.77.35-1a2.63,2.63,0,0,0,.1-.65q.06-1.05-1.2-1.05a2.36,2.36,0,0,0-2,1.05,4.15,4.15,0,0,0-.4.65c-.12.25-.27.59-.43,1a10.32,10.32,0,0,0-.35,1,2.57,2.57,0,0,0-.1.66Q377,149.66,378.26,149.66Z"/>
      <path class="cls-1" d="M390.18,149.2a.29.29,0,0,1,.3-.2h2.59c.14,0,.19.07.14.2l-.93,2.42a.29.29,0,0,1-.3.2h-2.59c-.15,0-.19-.07-.14-.2Z"/>
    </g>
    <g>
      <path class="cls-1" d="M130.88,82.93l-15.4,41.81H146.3l15.38-41.81Zm36.06,0-15.39,41.81h30.81l15.39-41.81Zm4.25-25.77H140.38l-7.83,21.21h30.82Zm58.66,45.65c2.28,0,5.93,0,8-4.57s9.35-22.6,11.4-29.9-.83-10.94-7.9-10.94-20.41-.24-20.41-.24h-44.5l-7.82,21.21h44.12c2.06,0,1.83,1.37,1.59,2.53s-.67,2-3,2h-10L193.78,103l10.73,21.69h32L224.61,102.8Zm50.25-19.7a9.45,9.45,0,0,1,9.11-5.87h37.17l7.12-19.61H269.58c-9.13,0-12.11,2.72-15.21,11.62L239,111s-1.83,4.56-1.14,7.3,2.51,6.16,8.44,6.16h63l7.11-19.61H279.85c-5,0-6.63-3-5.26-6.82Z"/>
      <path class="cls-1" d="M347.87,92.53l2.74-6.16H326.43l-2.75,6.16h8.37l-12.69,31.72h8.44l12.73-31.72Zm4.94-6.16-15.19,37.88h8.43l15.21-37.88Zm51.46,6.16L407,86.37H388.44l-12.75,31.74-2.48,6.14h19.7l2.74-6.14h-11.5l4-10h9.7l2.75-6.18h-10l3.75-9.35Zm-29.45,12.11a6.61,6.61,0,0,0,2.29-1.14c1.82-1.17,3.41-3,5.25-9.38s-2.29-7.75-6.85-7.75H364.46l-15.2,37.88h8.44L364,108.57c4.19-.2,4.12,2.24,3.3,4.5-.93,2.52-4.34,11.66-4.34,11.66h7.53s4.33-8.9,5.7-14.17S374.82,104.64,374.82,104.64Zm-2.74-4.57c-1.45,1.32-3.74,1.41-5.21,1.32l3.56-8.86h1.33C375.19,92.53,374.36,98,372.09,100.07Z"/>
    </g>
  </g>
</svg>
