<svg id="レイヤー_1" data-name="レイヤー 1" xmlns="http://www.w3.org/2000/svg" viewBox="0 0 510 210"><defs><style>.cls-1{fill:#005eb8;}</style></defs><title>アートボード 1</title><polygon class="cls-1" points="232.59 126.77 212.94 126.77 229.23 86.01 248.95 86.01 232.59 126.77"/><polygon class="cls-1" points="343.68 86.1 354.4 107.85 363.73 86.1 381.77 86.1 365.58 126.8 344.16 126.8 332.63 103.83 322.59 126.79 304.09 126.79 320.56 86.07 343.68 86.1"/><polygon class="cls-1" points="438 86.05 434.31 96.75 416.66 96.75 404.76 126.61 386.09 126.62 397.79 96.71 379.75 96.71 383.89 86.05 438 86.05"/><path class="cls-1" d="M297.55,86.12l4.21,40.66H281.31l-.26-4.71-22.34,0-4.26,4.77H234l38.87-40.75Zm-17.72,12.2-11.11,13.12h11.81Z"/><path class="cls-1" d="M420.36,125.73a4,4,0,1,1,4-4A4,4,0,0,1,420.36,125.73Zm0,.92a4.92,4.92,0,1,0-4.94-4.91A4.91,4.91,0,0,0,420.36,126.65Zm1.14-4.48c.94-.05,1.44-.46,1.44-1.43a1.54,1.54,0,0,0-.63-1.38,2.93,2.93,0,0,0-1.43-.25h-2.57v5.29h1v-2.24h1l1.17,2.24h1.19Zm-2.14-.78v-1.52h1.28c.5,0,1.27,0,1.27.7s-.42.83-1,.81Z"/><path class="cls-1" d="M172.67,101.07c4.79-6.6,12.73-8.31,20.36-6.82a6.46,6.46,0,0,1,4.43,4.4l21.28,0c.8-3.21.52-7-2.05-9.27a12.58,12.58,0,0,0-5-3.11c-15.34-4.12-35.65-4.2-49.1,4C153.4,96.57,145.8,108,149,117.6c2.45,7.87,14.34,9.33,23.37,9.62,12.73.42,23.47-7.3,35.78-1.82,2.89-7.22,9.33-22.88,9.33-22.88H189.22l-3.44,8.84s7.85,0,8,0a11.81,11.81,0,0,1-4.64,3.84c-5.06,1.82-12.22,2.93-17-.22a6.33,6.33,0,0,1-2.62-4C169,107.52,170.75,103.93,172.67,101.07Z"/><path class="cls-1" d="M89.36,110.27a27.86,27.86,0,0,0,6.24-3.65s3.77-3,4.38-3.63c0,0,2.52-2.28,3.08-2.86a35.41,35.41,0,0,1,7.44-5.6,28.52,28.52,0,0,1,14.67-3.62s7.28,0,12.15,2.78a29.49,29.49,0,0,0-5-8.71,34,34,0,0,0-7.9-7,32.58,32.58,0,0,0-14.06-4.8,34.56,34.56,0,0,0-11.84.9A33.07,33.07,0,0,0,85.56,80.8a33.61,33.61,0,0,0-7.62,9.74,32.55,32.55,0,0,0-2.84,9.33,31.2,31.2,0,0,0,.34,10s2.25,1.69,7,1.75A16.78,16.78,0,0,0,89.36,110.27Zm49.3-10.93c-10.47-5.35-23.21-.64-29.41,8.64V108a36.81,36.81,0,0,1,12.47-5.52c6.33-1,12,1.08,17.16,3.63A39.35,39.35,0,0,0,138.65,99.33Zm-32.88,19.21S92.41,124,77.25,115.7a30.44,30.44,0,0,0,17.91,16.61,32.53,32.53,0,0,0,21.83.63,31,31,0,0,0,15.38-10.55,25.5,25.5,0,0,0,5.12-9.19l.21-.58c-1.39-2.24-5.42-3.41-5.42-3.41-3.9-1-7.26-2.09-15,3.52C117.23,112.72,110.93,117,105.77,118.54Z"/></svg>