<svg id="Champion_System" data-name="Champion System" xmlns="http://www.w3.org/2000/svg" viewBox="0 0 510 210">
  <defs>
    <style>
      .cls-1 {
        fill: #15284b;
      }

      .cls-2 {
        fill: #ff5000;
      }
    </style>
  </defs>
  <title>ptnr_logo_championsystem</title>
  <g>
    <path class="cls-1" d="M135.18,93.65a19.17,19.17,0,0,0-4,.34,4.25,4.25,0,0,0-2.4,1.37,5.79,5.79,0,0,0-1.16,2.85,30.62,30.62,0,0,0-.3,4.75v3.56a26.42,26.42,0,0,0,.34,4.7,6,6,0,0,0,1.23,2.85,4.48,4.48,0,0,0,2.42,1.39,17.48,17.48,0,0,0,3.95.36h3.54l2.24,0,2.76-.06-1,5.25c-1.8.06-3.32.09-4.59.09h-3.13a24.52,24.52,0,0,1-6.71-.78,9.54,9.54,0,0,1-4.34-2.49,9.7,9.7,0,0,1-2.33-4.5,29.25,29.25,0,0,1-.68-6.85V103a27.66,27.66,0,0,1,.73-6.89,9.86,9.86,0,0,1,2.4-4.5,9.32,9.32,0,0,1,4.34-2.45A25.35,25.35,0,0,1,135,88.4h3.49q1.94,0,5,.09l-1,5.25q-1.55,0-3.58-.07l-3.77,0"/>
    <path class="cls-1" d="M147.32,121v-33l5.94-.87V98.39a7,7,0,0,1,2.28-1.3,12.47,12.47,0,0,1,4.25-.57,11.27,11.27,0,0,1,6.73,1.8q2.49,1.81,2.49,6.05V121h-5.94V105.56a10.7,10.7,0,0,0-.14-1.82,2.55,2.55,0,0,0-.62-1.3,2.87,2.87,0,0,0-1.39-.78,9.63,9.63,0,0,0-2.47-.25,10.11,10.11,0,0,0-2.6.27,3.24,3.24,0,0,0-1.58.89,3.48,3.48,0,0,0-.8,1.64,11.73,11.73,0,0,0-.23,2.49V121Z"/>
    <path class="cls-1" d="M193.88,116.7a4.25,4.25,0,0,1-1.09,3.35A5.9,5.9,0,0,1,189,121h-7.44q-4.88,0-6.92-1.82a6.7,6.7,0,0,1-2-5.25v-1q0-3.79,2.24-5.5t7-1.71a17.11,17.11,0,0,1,3.95.39,8,8,0,0,1,2.35.89v-.82a7.15,7.15,0,0,0-.25-2.05,2.63,2.63,0,0,0-.84-1.3,3.54,3.54,0,0,0-1.62-.66,15.22,15.22,0,0,0-2.58-.18h-1.92l-2.12,0-2.12,0-1.92,0,1-4.79q1.28,0,3.2-.07l4.2,0q5.57,0,8.17,2t2.6,6.16Zm-5.75,0V113a5.25,5.25,0,0,0-.16-1.39,1.7,1.7,0,0,0-.66-.94,3.42,3.42,0,0,0-1.42-.53,15,15,0,0,0-2.42-.16h-.68a6.69,6.69,0,0,0-3.51.64,2.65,2.65,0,0,0-.91,2.33v.87a2.66,2.66,0,0,0,.85,2.17,5,5,0,0,0,3.13.71Z"/>
    <path class="cls-1" d="M198.29,121V104.74a10.28,10.28,0,0,1,.64-3.86,5.91,5.91,0,0,1,1.89-2.53A8.1,8.1,0,0,1,203.9,97a18.3,18.3,0,0,1,4.2-.43,12.86,12.86,0,0,1,4.36.68,6.65,6.65,0,0,1,2.95,2,6.61,6.61,0,0,1,3-2,13.23,13.23,0,0,1,4.43-.68A18,18,0,0,1,227,97,8.08,8.08,0,0,1,230,98.35a5.9,5.9,0,0,1,1.89,2.53,10.3,10.3,0,0,1,.64,3.86V121h-5.93V105.56a13,13,0,0,0-.11-1.82,2.71,2.71,0,0,0-.53-1.3,2.42,2.42,0,0,0-1.25-.78,8.19,8.19,0,0,0-2.26-.25,7.59,7.59,0,0,0-2.1.23,2.8,2.8,0,0,0-1.23.69,2.16,2.16,0,0,0-.6,1.14,8.4,8.4,0,0,0-.14,1.6V121h-5.94V105.56a12.79,12.79,0,0,0-.11-1.82,2.62,2.62,0,0,0-.55-1.3,2.54,2.54,0,0,0-1.26-.78,10.12,10.12,0,0,0-4.47,0,2.4,2.4,0,0,0-1.23.78,2.73,2.73,0,0,0-.53,1.3,12.81,12.81,0,0,0-.11,1.82V121Z"/>
    <path class="cls-1" d="M259.44,110.22a23.21,23.21,0,0,1-.52,5.3,7.88,7.88,0,0,1-1.78,3.56,7.38,7.38,0,0,1-3.31,2,17.6,17.6,0,0,1-5.11.64,12,12,0,0,1-3.47-.43,6.5,6.5,0,0,1-2.33-1.21V129l-5.94.88V107.8a19,19,0,0,1,.64-5.34,7.34,7.34,0,0,1,5.55-5.37,20.71,20.71,0,0,1,5.18-.57,20.45,20.45,0,0,1,5.07.54,7.42,7.42,0,0,1,3.45,1.9,7.91,7.91,0,0,1,2,3.56,21.1,21.1,0,0,1,.62,5.55ZM248.16,117a12.79,12.79,0,0,0,2.67-.23,2.68,2.68,0,0,0,1.6-1,4.35,4.35,0,0,0,.78-2,23.19,23.19,0,0,0,.2-3.45V108a21.8,21.8,0,0,0-.23-3.52,4.39,4.39,0,0,0-.8-2,2.74,2.74,0,0,0-1.6-.94,12.56,12.56,0,0,0-2.63-.23,12.19,12.19,0,0,0-2.6.23,2.87,2.87,0,0,0-1.6.91,4.06,4.06,0,0,0-.82,2,20.56,20.56,0,0,0-.23,3.4V111a14.39,14.39,0,0,0,.25,2.94,3.9,3.9,0,0,0,.85,1.82,3.07,3.07,0,0,0,1.6.91,10.74,10.74,0,0,0,2.56.25"/>
    <path class="cls-1" d="M269.88,90.54a3.36,3.36,0,0,1-.78,2.49,5.35,5.35,0,0,1-5.48,0,4.33,4.33,0,0,1,0-5,5.21,5.21,0,0,1,5.48,0,3.36,3.36,0,0,1,.78,2.46m-6.53,6.71h5.93V121h-5.93Z"/>
    <path class="cls-1" d="M284.57,96.52a21.44,21.44,0,0,1,5.2.54,7.83,7.83,0,0,1,3.52,1.85,7.49,7.49,0,0,1,2,3.49,20.53,20.53,0,0,1,.62,5.48v2.47a20.54,20.54,0,0,1-.62,5.48,7.48,7.48,0,0,1-2,3.49,7.81,7.81,0,0,1-3.52,1.85,21.43,21.43,0,0,1-5.2.55,21.7,21.7,0,0,1-5.25-.55,7.82,7.82,0,0,1-3.52-1.85,7.49,7.49,0,0,1-2-3.49,20.63,20.63,0,0,1-.62-5.48v-2.47a20.62,20.62,0,0,1,.62-5.48,7.49,7.49,0,0,1,2-3.49,7.84,7.84,0,0,1,3.52-1.85,21.71,21.71,0,0,1,5.25-.54m5.29,11.27a20.59,20.59,0,0,0-.23-3.4,4.23,4.23,0,0,0-.8-2,2.77,2.77,0,0,0-1.6-.91,12.77,12.77,0,0,0-2.67-.23,13.15,13.15,0,0,0-2.69.23,2.79,2.79,0,0,0-1.62.91,4.2,4.2,0,0,0-.8,2,20.29,20.29,0,0,0-.23,3.4v2.69a19.82,19.82,0,0,0,.23,3.38,4.17,4.17,0,0,0,.8,2,2.81,2.81,0,0,0,1.62.91,13.15,13.15,0,0,0,2.69.23,12.77,12.77,0,0,0,2.67-.23,2.78,2.78,0,0,0,1.6-.91,4.2,4.2,0,0,0,.8-2,20.11,20.11,0,0,0,.23-3.38Z"/>
    <path class="cls-1" d="M299.82,121V104.83a10.32,10.32,0,0,1,.64-3.83,5.8,5.8,0,0,1,2-2.58A8.75,8.75,0,0,1,305.8,97a22.64,22.64,0,0,1,4.88-.46q5.66,0,8.24,1.89t2.58,6.41V121h-5.93V105.56a10.27,10.27,0,0,0-.14-1.82,2.55,2.55,0,0,0-.62-1.3,2.9,2.9,0,0,0-1.46-.78,14.36,14.36,0,0,0-5.34,0,3,3,0,0,0-1.48.78,2.46,2.46,0,0,0-.64,1.3,10.69,10.69,0,0,0-.14,1.82V121Z"/>
    <path class="cls-1" d="M342.56,102.15a16.31,16.31,0,0,1,3.79,1.12,6.43,6.43,0,0,1,3.79,4.4,13.23,13.23,0,0,1,.41,3.47v.73a11.69,11.69,0,0,1-.62,4,6.25,6.25,0,0,1-2.08,2.83,9.72,9.72,0,0,1-3.86,1.69,27.2,27.2,0,0,1-6,.55h-4.4q-2.67,0-7-.09l1-5.16,3.26.07,2.69,0h4.59a21.53,21.53,0,0,0,3.13-.18,5,5,0,0,0,1.92-.64,2.27,2.27,0,0,0,1-1.21,6.31,6.31,0,0,0,.25-1.94,9.47,9.47,0,0,0-.14-1.71,2.43,2.43,0,0,0-.57-1.19,3.11,3.11,0,0,0-1.23-.78,12.4,12.4,0,0,0-2.12-.52l-5.52-.91a15.88,15.88,0,0,1-4-1.14,7.15,7.15,0,0,1-2.49-1.8,5.9,5.9,0,0,1-1.26-2.54,14.64,14.64,0,0,1-.34-3.33v-.82a10.16,10.16,0,0,1,.64-3.7,6.42,6.42,0,0,1,2.05-2.76,10.16,10.16,0,0,1,3.72-1.74,22.2,22.2,0,0,1,5.68-.62h4.7l2.69,0,3.42.07-1,5.16q-3.42-.09-5.77-.09h-4.41a18,18,0,0,0-2.83.18,4.39,4.39,0,0,0-1.73.62A2.27,2.27,0,0,0,333,95.4a5.69,5.69,0,0,0-.25,1.83,7.71,7.71,0,0,0,.14,1.6,2.33,2.33,0,0,0,.55,1.09,3,3,0,0,0,1.19.75,9.62,9.62,0,0,0,2,.48Z"/>
    <path class="cls-1" d="M356.89,124.11l2.31.07,1.92,0h3.31a11.81,11.81,0,0,0,2.63-.25,3.89,3.89,0,0,0,1.76-.87,3.43,3.43,0,0,0,1-1.71,10.76,10.76,0,0,0,.3-2.74v-.46a9.17,9.17,0,0,1-1,.69,6.59,6.59,0,0,1-1.23.57,8.67,8.67,0,0,1-1.73.39,19.76,19.76,0,0,1-2.53.13q-4.43,0-6.76-1.76t-2.33-6V97.13h5.94V111a12.51,12.51,0,0,0,.11,1.82,2.55,2.55,0,0,0,.55,1.3,2.66,2.66,0,0,0,1.32.8,8.7,8.7,0,0,0,2.44.27,12.64,12.64,0,0,0,2.67-.23,3.1,3.1,0,0,0,1.57-.78,2.89,2.89,0,0,0,.75-1.42,9.8,9.8,0,0,0,.2-2.19V97.13H376v21.55a15.83,15.83,0,0,1-.62,4.7,7,7,0,0,1-2,3.2,8.41,8.41,0,0,1-3.52,1.8,20.54,20.54,0,0,1-5.2.57H361l-2.21,0-2.86-.07Z"/>
    <path class="cls-1" d="M393.14,106.49a10.37,10.37,0,0,1,3.4.8,5.81,5.81,0,0,1,2.1,1.53,5.25,5.25,0,0,1,1,2.06,9.17,9.17,0,0,1,.3,2.33v.68a6.16,6.16,0,0,1-2.42,5.27Q395.15,121,390,121h-4.73l-2.85,0-2.83-.07.91-4.84q2.33,0,5,.07l4.75,0a6.71,6.71,0,0,0,3.13-.5,1.9,1.9,0,0,0,.85-1.78,2.16,2.16,0,0,0-.53-1.55,4,4,0,0,0-2.35-.73l-5-.41a8.59,8.59,0,0,1-3-.73,6.34,6.34,0,0,1-2.06-1.48,5.29,5.29,0,0,1-1.14-2,8,8,0,0,1-.34-2.35v-.69a6.15,6.15,0,0,1,2.21-5q2.22-1.8,7.47-1.8l4.29,0,5.75.07-.91,4.84-3.51-.07-2.63,0h-3.49a6.24,6.24,0,0,0-2.78.43,1.6,1.6,0,0,0-.77,1.53,2,2,0,0,0,.52,1.53,4.72,4.72,0,0,0,2.44.66Z"/>
    <path class="cls-1" d="M416.92,120.87h-3.7a22.39,22.39,0,0,1-4.72-.41,6,6,0,0,1-2.92-1.44,5.47,5.47,0,0,1-1.48-2.76,19.26,19.26,0,0,1-.41-4.34V91.61l5.94-1v6.48h8.54l-1,4.88h-7.58v9.59a12.62,12.62,0,0,0,.16,2.24,2.67,2.67,0,0,0,.6,1.35,2.16,2.16,0,0,0,1.23.64,10.92,10.92,0,0,0,2,.16h4.25Z"/>
    <path class="cls-1" d="M426.62,111a16.06,16.06,0,0,0,.18,2.69,2.76,2.76,0,0,0,2.33,2.46,12.16,12.16,0,0,0,2.65.23h3.65q2.05,0,5.07-.09l-.91,4.56-2.28.07-1.94,0H431.5a16.48,16.48,0,0,1-5.34-.73,7.21,7.21,0,0,1-5-5.45,19.49,19.49,0,0,1-.48-4.54v-2.56a20.83,20.83,0,0,1,.5-4.84,8.14,8.14,0,0,1,1.76-3.54,7.69,7.69,0,0,1,3.38-2.17,16.61,16.61,0,0,1,5.36-.73,16,16,0,0,1,5,.66,8.21,8.21,0,0,1,3.19,1.85,6.58,6.58,0,0,1,1.71,2.81,11.75,11.75,0,0,1,.5,3.53V106a14.37,14.37,0,0,1-.18,2.53,3.47,3.47,0,0,1-.62,1.53,2.07,2.07,0,0,1-1.12.73,6.66,6.66,0,0,1-1.69.18Zm4.93-10.13a10.41,10.41,0,0,0-2.51.25,2.88,2.88,0,0,0-1.51.91,3.63,3.63,0,0,0-.73,1.78,18.1,18.1,0,0,0-.18,2.85h9.81v-1a9.39,9.39,0,0,0-.23-2.24,3,3,0,0,0-.78-1.46,3.28,3.28,0,0,0-1.51-.8,9.69,9.69,0,0,0-2.37-.25"/>
    <path class="cls-1" d="M445.71,120.87V104.62a10.25,10.25,0,0,1,.64-3.86,5.87,5.87,0,0,1,1.9-2.53,8.07,8.07,0,0,1,3.08-1.39,18.25,18.25,0,0,1,4.2-.44,12.84,12.84,0,0,1,4.36.69,6.59,6.59,0,0,1,2.94,2,6.64,6.64,0,0,1,3-2,13.19,13.19,0,0,1,4.43-.69,18.05,18.05,0,0,1,4.15.44,8.12,8.12,0,0,1,3.08,1.39,5.91,5.91,0,0,1,1.89,2.53,10.22,10.22,0,0,1,.64,3.86v16.25h-5.94V105.44a13.19,13.19,0,0,0-.11-1.83,2.71,2.71,0,0,0-.53-1.3,2.4,2.4,0,0,0-1.26-.78,8.14,8.14,0,0,0-2.26-.25,7.58,7.58,0,0,0-2.1.23,2.87,2.87,0,0,0-1.24.68,2.21,2.21,0,0,0-.59,1.14,8.13,8.13,0,0,0-.14,1.6v15.93h-5.93V105.44a13.16,13.16,0,0,0-.11-1.83,2.61,2.61,0,0,0-.55-1.3,2.56,2.56,0,0,0-1.26-.78,10,10,0,0,0-4.48,0,2.41,2.41,0,0,0-1.23.78,2.65,2.65,0,0,0-.52,1.3,12.83,12.83,0,0,0-.11,1.83v15.43Z"/>
    <path class="cls-2" d="M77.73,105.57a1.69,1.69,0,0,1-.23-.35,26.7,26.7,0,1,0-24.84,36.58,26.47,26.47,0,0,0,24.42-15.94l-10.9.09H52.66a10.79,10.79,0,1,1,10.69-10.79,10.65,10.65,0,0,1-2.37,6.7H78.79a32.08,32.08,0,0,0-1.06-16.28"/>
    <path class="cls-2" d="M78.48,75.33a48.44,48.44,0,0,0-24.42-7.64H53.8V84.23c9.75,0,19.81,6,25,13.57,1,1.37,6.72,10.2,4.47,24H99.85a48.06,48.06,0,0,0-11-37.49,46.33,46.33,0,0,0-10.41-9"/>
    <path class="cls-2" d="M92.65,82.35a9,9,0,0,0,6.27-2.46,7.84,7.84,0,0,0,2.63-5.63c0-4.14-2.6-8.6-8.32-8.6l-27.31.07a52.21,52.21,0,0,1,14.52,6.13A46.11,46.11,0,0,1,92.65,82.35"/>
  </g>
</svg>
