<svg id="SANTA_CRUZ" data-name="SANTA CRUZ" xmlns="http://www.w3.org/2000/svg" viewBox="0 0 510 210">
  <defs>
    <style>
      .cls-1 {
        fill: #c41318;
      }
    </style>
  </defs>
  <title>ptnr_logo_santacruz</title>
  <path class="cls-1" d="M331.57,73.43l-20.1,34.31H294l20.1-34.31H295l-20.1,34.31h-21l-2.8-27.14-15.9,27.14H217.74L243.36,64h21.22l2.77,26.8L283,64h69l-5.52,9.43ZM217.48,64H201.22l-49.88,43.74h66.14ZM200.24,98.31H179.59l21.18-18.57ZM387.78,64H371.53l-49.89,43.74h66.13ZM370.55,98.31H349.9l21.19-18.57ZM118.22,81.16h0c-3,5.17-1.32,9.38,3.81,9.43h20.76l-4.53,7.73H108.17l-5.52,9.43H140.8c5.21,0,11.9-4.22,15-9.43h0l4.53-7.73h0c3-5.21,1.3-9.43-3.91-9.43H135.71l4.53-7.73h30.1L175.86,64H137.7c-5.21,0-11.9,4.22-15,9.43h0Zm151.2,69.38c-3,5.17-1.32,9.37,3.81,9.43h32.26c5.21,0,11.9-4.22,15-9.43h0L335,125.66h29.57L324.49,160H374.4l5.52-9.43H357.66l37.47-34.31H323l-20.09,34.31h-16L307,116.23H289.52Zm-87.21,0,14.58-24.88h24.94l5.52-9.43h-33c-5.21,0-11.9,4.22-15,9.43h0l-14.57,24.88h0l0,0c-3,5.18-1.33,9.38,3.81,9.43h33.09l5.54-9.46Zm52.45-34.31L209,160h17.49L235,145.54h3.5l6,14.43h18.42l-7.26-14.43h0c5.21,0,11.9-4.22,15-9.43h0l6.12-10.45h0c3-5.21,1.3-9.43-3.91-9.43Zm18.44,19.88H240.5l6.12-10.45h12.61ZM394.87,64.69H393v4h-1.1v-4H390V64h4.87Zm.88-.69h1.61l1.25,2.82c.17.39.26.66.26.66h0s.08-.27.25-.67L400.38,64H402v4.69h-1.09V64.9h0a8.77,8.77,0,0,1-.34.9l-1.27,2.89h-.87l-1.25-2.89a9.15,9.15,0,0,1-.34-.9h0v3.8h-1Z"/>
</svg>
