<svg id="NORTHWAVE" xmlns="http://www.w3.org/2000/svg" viewBox="0 0 510 210">
  <defs>
    <style>
      .cls-1 {
        fill: #0a0000;
      }

      .cls-2 {
        fill: #ad1b26;
      }

      .cls-3 {
        fill: #eee242;
      }
    </style>
  </defs>
  <title>ptnr_logo_northwave</title>
  <g>
    <path class="cls-1" d="M251.86,46c-67.94-.12-123.06,22.28-123.11,50s55,50.33,122.94,50.45,123.06-22.28,123.11-50S319.8,46.11,251.86,46"/>
    <path class="cls-2" d="M227.63,56.95c-44-.08-79.74,17.08-79.78,38.31,0,17,22.79,31.44,54.45,36.58l48.59-73.18a160.07,160.07,0,0,0-23.26-1.7"/>
    <path class="cls-3" d="M255.89,50.81l-57.15,86.07c10.13,1,20.75,1.46,31.71,1.48,69.31.12,125.54-19.59,125.58-44,0-21.38-43-39.3-100.13-43.52"/>
    <path class="cls-1" d="M245.81,78.61l-14.3,0a2.45,2.45,0,0,0-2.25,1.49L223.9,96.65a1.33,1.33,0,0,1-2,.69L180.48,75.45a1.33,1.33,0,0,0-2,.69l-11.55,36.28c-.26.82.32,1.5,1.28,1.5l14.15,0a2.45,2.45,0,0,0,2.24-1.49L190,95.88a1.33,1.33,0,0,1,2-.7l41.57,21.9a1.33,1.33,0,0,0,2-.7L247.09,80.1c.26-.83-.31-1.5-1.28-1.5"/>
    <path class="cls-1" d="M335.08,78.7l-12.66,0a5,5,0,0,0-3,1.13l-14.7,13.84a1.05,1.05,0,0,1-1.82-.32l-7.57-17.86a1,1,0,0,0-1.81-.31l-18,17.12a1.07,1.07,0,0,1-1.84-.31L268.43,80a2.8,2.8,0,0,0-2.4-1.45l-15.8,0c-1,0-1.47.65-1.11,1.44L265,115.37a1.09,1.09,0,0,0,1.86.31L285.42,98.4a1.15,1.15,0,0,1,1.92.3l8.29,16.75a1.14,1.14,0,0,0,1.91.29l38.1-35.9c.67-.62.42-1.14-.55-1.14"/>
    <path class="cls-1" d="M178.47,165.17a8.62,8.62,0,0,1-7.67,6.09h-7.47a3.83,3.83,0,0,1-3.15-1.37,4.25,4.25,0,0,1-.52-3.76,8.62,8.62,0,0,1,7.67-6.09h7.48a3.84,3.84,0,0,1,3.15,1.37,4.25,4.25,0,0,1,.52,3.76m-3.67-8.86h-7.48A12.28,12.28,0,0,0,156,165.17a8,8,0,0,0,1.17,7,7.47,7.47,0,0,0,6.11,2.83h7.47a12.28,12.28,0,0,0,11.29-8.86,8,8,0,0,0-1.16-7,7.48,7.48,0,0,0-6.11-2.83"/>
    <path class="cls-1" d="M205.17,161.43a3.36,3.36,0,0,1-2.93,2.35H189.72l1-3.74h13.52a1,1,0,0,1,.83.32,1.25,1.25,0,0,1,.1,1.07m-.93-5.12H189.07l-.1,0h-.09l-.08,0-.1,0-.06,0-.11,0-.06,0-.1.05-.06,0-.09.06-.06,0-.07.06-.07.06-.06.06-.07.08-.05.06-.06.08,0,.06-.05.08,0,.08,0,.07,0,.1,0,.07,0,.11v0l-4,14.94a1.87,1.87,0,0,0,1.32,2.29,1.79,1.79,0,0,0,.48.07,1.87,1.87,0,0,0,1.8-1.39l1.64-6.08h8.84l4.9,6.74a1.87,1.87,0,1,0,3-2.2l-3.31-4.55h.06a7.11,7.11,0,0,0,6.54-5.12,4.93,4.93,0,0,0-.74-4.31,4.72,4.72,0,0,0-3.8-1.78"/>
    <path class="cls-1" d="M260.8,156.37a1.87,1.87,0,0,0-2.29,1.32l-1.63,6.09H242l1.37-5.12a1.87,1.87,0,0,0-3.61-1l-4,14.86a2,2,0,0,0-.06.56,1.87,1.87,0,0,0,1.39,1.74,1.9,1.9,0,0,0,.48.06,1.87,1.87,0,0,0,1.8-1.39l1.61-6h14.9l-1.35,5a1.87,1.87,0,0,0,1.32,2.29,1.92,1.92,0,0,0,.48.06,1.87,1.87,0,0,0,1.8-1.39l4-14.86a1.87,1.87,0,0,0-1.32-2.29"/>
    <path class="cls-1" d="M301.7,156.74a1.87,1.87,0,0,0-2.63.24l-10.18,12.25-3.41-11.59a1.87,1.87,0,0,0-3.23-.67l-10.18,12.25-3.42-11.59a1.87,1.87,0,1,0-3.59,1.06l4.41,15a1.87,1.87,0,0,0,3.23.66l10.18-12.25,3.41,11.59a1.87,1.87,0,0,0,3.23.66l12.42-15a1.87,1.87,0,0,0-.24-2.63"/>
    <path class="cls-1" d="M153.33,156.38A1.87,1.87,0,0,0,151,157.7l-3.15,11.75L136,156.85a1.87,1.87,0,0,0-3.16.8l-4,15a1.87,1.87,0,1,0,3.61,1l3.15-11.75,11.92,12.6a1.86,1.86,0,0,0,1.36.59,2,2,0,0,0,.46-.06,1.87,1.87,0,0,0,1.35-1.33l4-15a1.87,1.87,0,0,0-1.32-2.29"/>
    <path class="cls-1" d="M236.79,158.18a1.87,1.87,0,0,0-1.87-1.87H212.55a1.87,1.87,0,1,0,0,3.74h8.88l-3.37,12.57a1.87,1.87,0,0,0,1.32,2.29,1.8,1.8,0,0,0,.48.06,1.87,1.87,0,0,0,1.8-1.39L225.3,160h9.62a1.87,1.87,0,0,0,1.87-1.87"/>
    <path class="cls-1" d="M343.38,156.82a1.87,1.87,0,0,0-2.64.06L328.22,170l-6.92-12.7a1.87,1.87,0,1,0-3.28,1.79l8.14,15a1.88,1.88,0,0,0,1.4,1l.25,0a1.87,1.87,0,0,0,1.35-.58l14.29-15a1.87,1.87,0,0,0-.06-2.64"/>
    <path class="cls-1" d="M305.45,167.52l5-6,3.28,6Zm7-10.24a1.87,1.87,0,0,0-3.08-.3l-12.42,15a1.87,1.87,0,0,0,2.88,2.39l2.55-3.06h13.42l1.51,2.76a1.88,1.88,0,0,0,1.64,1,1.87,1.87,0,0,0,1.64-2.77Z"/>
    <path class="cls-1" d="M365.49,156.27H348.65a1.87,1.87,0,0,0-1.8,1.39l-2,7.41c0,.07,0,.14-.06.22l-2,7.34a1.87,1.87,0,0,0,1.81,2.36h16.82a1.87,1.87,0,1,0,0-3.74H347.07l1-3.71h15.39a1.87,1.87,0,0,0,0-3.74H349.07l1-3.77h15.41a1.87,1.87,0,0,0,0-3.74"/>
    <path class="cls-1" d="M372.27,158.87h-.4v-.6h.4c.18,0,.33.09.33.29a.3.3,0,0,1-.33.31m1.05-.29a.94.94,0,0,0-1.05-.95h-1.11v2.78h.71v-.91h.36l.37.91h.74l-.46-1.05a.84.84,0,0,0,.44-.78"/>
    <path class="cls-1" d="M372.18,161.22a2.15,2.15,0,1,1,2.1-2.15,2,2,0,0,1-2.1,2.15m0-5a2.8,2.8,0,1,0,2.82,2.8,2.73,2.73,0,0,0-2.82-2.8"/>
  </g>
</svg>
