<svg id="レイヤー_1" data-name="レイヤー 1" xmlns="http://www.w3.org/2000/svg" viewBox="0 0 388 180">
  <defs>
    <style>
      .cls-1 {
        fill: red;
      }
    </style>
  </defs>
  <title>hdr-logo</title>
  <g>
    <g>
      <path d="M16.42,12.26v2.4H2v-2.4Z"/>
      <path d="M18.25,13V6.9h1.43c.23-1,.44-2.07.54-2.84l1.62.46c-.17.7-.39,1.55-.64,2.38h2.5v5.61l.62-.08,0,1.65-.65.08V21.3c0,1.12-.22,1.76-1,1.92a6.29,6.29,0,0,1-1.57,0l-.28-1.9a9.73,9.73,0,0,0,1.06,0c.23,0,.3-.17.3-.43V14.37c-.84.12-1.72.23-2.55.35a24.8,24.8,0,0,1-1.35,8.61L17,22.27a20.4,20.4,0,0,0,1.21-7.39c-.33,0-.64.08-.92.1l-.2-1.86C17.46,13.1,17.85,13.08,18.25,13Zm4-.37V8.74H19.7v4.18ZM20.82,9.13a10.51,10.51,0,0,1,1.06,2.69l-1.07.52a10.48,10.48,0,0,0-.9-2.63Zm.59,6v5.44H20.33V15.11ZM29,4.56h.78V8.72c0,.75,0,.85.22.87h.42c.19,0,.2-.08.22-1.28l1.2.27c-.12,2.57-.37,2.85-1.31,2.9h-.71c-1.26,0-1.52-.6-1.52-2.75V6.48H26.72v1a7.22,7.22,0,0,1-1.48,4.76l-1.35-1a5,5,0,0,0,1.37-3.75V4.56H29Zm-1.15,13.3a12.82,12.82,0,0,0,1.31-3.5h-4.4V12.44h5.18l1.17.33a18,18,0,0,1-2.18,6.6,8.2,8.2,0,0,0,2.89,2.13l-1,1.78a9.35,9.35,0,0,1-2.94-2.42A10.41,10.41,0,0,1,25,23.28l-1.06-1.63a8.85,8.85,0,0,0,2.84-2.26,17,17,0,0,1-1.71-4.26l1.43-.66A12.87,12.87,0,0,0,27.81,17.86Z"/>
      <path d="M36.62,23.28H34.93V16.75a13.62,13.62,0,0,1-1.63,1.78l-1-1.82a16.13,16.13,0,0,0,4.48-7.14H32.71v-2h2.22V4.08h1.69V7.52h1.3l1,.56A23.84,23.84,0,0,1,37,13.41c.89,1.14,1.83,2.36,2.38,3.19l-1.21,1.51c-.37-.75-.93-1.72-1.55-2.69Zm5.13-2.63v-8H38.92V10.58h2.83V4.08h1.74v6.5h2.86v2.09H43.49v8H47v2.09H38V20.66Z"/>
      <path d="M49.81,22.42v.85h-1.6V5H61.27V23.26H59.6v-.85Zm9.79-2V7H49.81V20.39ZM55.83,9.86V7.58H57.4V9.86h1.74v1.86H57.4v6c0,1.1-.25,1.72-1,1.88a10.55,10.55,0,0,1-2,0l-.26-1.82a10.76,10.76,0,0,0,1.38,0c.25,0,.33-.17.33-.48V11.72H50.28V9.86ZM53,12.21a17.67,17.67,0,0,1,1.77,4.08l-1.52.85a15.75,15.75,0,0,0-1.57-4.08Z"/>
      <path d="M65.09,14a11.68,11.68,0,0,0-2.58-2.73l1-1.49a12.57,12.57,0,0,1,2.8,2.65Zm-.85,9.15-1.46-1.28a52.67,52.67,0,0,0,2.53-6.75l1.24,1.24A58.76,58.76,0,0,1,64.24,23.12ZM65.68,8.43a12.47,12.47,0,0,0-2.47-2.61l1-1.49a13.45,13.45,0,0,1,2.67,2.5ZM67,22.68l-.37-2.28c.44,0,.93-.08,1.51-.12.62-1.84,1.21-3.85,1.62-5.44H66.45V12.75h4.29V9.61H67.41v-2h3.33V4.06h1.72v3.5H76v2H72.46v3.14H77v2.09H71.62c-.44,1.55-1,3.43-1.68,5.26,1.34-.12,2.77-.29,4-.43-.44-1-.93-1.9-1.49-2.9l1.41-.91a29,29,0,0,1,3,6.39l-1.63,1a17.18,17.18,0,0,0-.58-1.78C72.29,21.92,69,22.42,67,22.68Z"/>
      <path d="M85.58,8c.84,6.79,3,11.07,6.65,13.24l-1.45,2.07c-2.78-2-4.76-5.21-6-9.77-.87,3.77-2.52,7.43-5.72,9.77L77.7,21.51C83.59,17.57,83.89,9.4,84,4.12l1.79,0C85.72,5.32,85.67,6.61,85.58,8Z"/>
    </g>
    <g>
      <path d="M100,22.15v1H97.8v-18h14.4v18h-2.34v-1Zm9.83-14.86H100v5.13h9.83Zm0,12.7V14.53H100V20Z"/>
      <path d="M115.77,20l-1.61-1.78a20.26,20.26,0,0,0,7.66-8.15h-7.35V8h8.4V4.08h2.32V8h8.48v2.11h-7.3A20.7,20.7,0,0,0,134,18l-1.7,1.92a24.72,24.72,0,0,1-7.1-7.92v5.48h3.52V19.6h-3.52v3.68h-2.32V19.6h-3.46V17.49h3.46V12.26A24.47,24.47,0,0,1,115.77,20Z"/>
      <path d="M141.88,12.63l-1.12,2a37.27,37.27,0,0,0-5.36-2.38l1.14-2A39.52,39.52,0,0,1,141.88,12.63Zm8.52-2.52,1.59,1.8c-2.88,4.61-8.69,8.92-14.26,10.63l-1.26-2.3A24.37,24.37,0,0,0,150.4,10.1ZM144,8.1l-1.16,2a35.22,35.22,0,0,0-5.17-2.5l1.14-2A40.78,40.78,0,0,1,144,8.1Z"/>
      <path d="M168,7.83l1.76.85c-1.64,7-4.93,11.48-11.15,14.07l-1.61-2c6-2.15,8.77-6.27,9.77-10.8H160.6a25.9,25.9,0,0,1-4.88,5.54L153.86,14a24.17,24.17,0,0,0,7-9.33l2.3.83c-.33.74-.72,1.53-1.18,2.34Z"/>
      <path d="M188.16,7.29V21.42h-15.1V7.29Zm-2.5,11.79V9.59H175.52v9.5Z"/>
      <path d="M204.65,7.83l1.76.85c-1.64,7-4.93,11.48-11.15,14.07l-1.61-2c6-2.15,8.77-6.27,9.77-10.8h-6.17a25.89,25.89,0,0,1-4.88,5.54L190.49,14a24.18,24.18,0,0,0,7-9.33l2.3.83c-.33.74-.72,1.53-1.18,2.34Z"/>
      <path d="M224.79,7.29V21.42h-15.1V7.29Zm-2.5,11.79V9.59H212.15v9.5Z"/>
      <path d="M244.22,21.13,242,22.66a40.87,40.87,0,0,0-5.53-5.9A25.41,25.41,0,0,1,229,22.64l-1.57-2c5.53-2.5,9.87-7.63,11.13-11.79H228.8V6.65H240l1.7,1a24.82,24.82,0,0,1-3.72,7.3A63.32,63.32,0,0,1,244.22,21.13Z"/>
      <path d="M250.81,20.22V16.91h-1c-.27,2.52-.93,4.95-2.73,6.37l-1.57-1.18c1.59-1.12,2.15-3.19,2.36-5.19h-1.39V12h8v4.86h-1.7v2.67c.81-.29,1.64-.56,2.3-.81.25,1.57.25,1.61.25,1.66-1.49.62-3.68,1.51-5,2l-.58-1.86Zm-3-10.66a13,13,0,0,0-.54-2.24h-1.2V5.78h3.31V4.08h2.11v1.7h3.08V7.33h-.83c-.23.66-.5,1.45-.81,2.24h1.86v1.57h-9.08V9.57Zm.62,5.77h4V13.62h-4Zm2.79-5.77c.25-.77.48-1.55.64-2.24h-2.81a15.35,15.35,0,0,1,.5,2.24ZM262,20.2c0,.72,0,.85.35.85a4.75,4.75,0,0,0,.77,0c.29,0,.31-.1.33-1.68l1.64.27c-.17,3-.48,3.35-1.86,3.39a10.37,10.37,0,0,1-1.14,0c-1.8-.06-2.15-.62-2.15-2.83V16.91h-1c-.35,2.77-1.16,5-3.58,6.43L253.81,22c2.15-1,2.85-2.94,3.1-5.11h-1.14V12h8.36v4.86H262ZM257.29,9.57a13.28,13.28,0,0,0-.62-2.24h-1V5.78h3.17V4.08H261v1.7h3.62V7.33h-1.16c-.23.66-.54,1.45-.85,2.24h2.32v1.57h-9.54V9.57Zm.48,5.77h4.3V13.62h-4.3Zm3.06-5.77c.27-.77.52-1.55.68-2.24h-3a16.11,16.11,0,0,1,.56,2.24Z"/>
      <path d="M268.73,13.79V9.88H266V7.79h2.71V4.08H271v3.7h1.94V9.88H271v3.31c.7-.21,1.39-.39,2-.58l.19,2c-.64.21-1.37.48-2.15.72v5.55c0,1.37-.37,2.15-1.63,2.36a16,16,0,0,1-2.5,0c-.43-2.11-.43-2.15-.43-2.19.66,0,1.51,0,1.82,0s.52-.23.52-.62V16.06c-.93.31-1.82.58-2.5.79l-.5-2.28C266.49,14.39,267.57,14.1,268.73,13.79Zm16.61,7.45-1.49,2a15.88,15.88,0,0,1-5-2.54,18.24,18.24,0,0,1-5.34,2.57L272,21.4a16.34,16.34,0,0,0,5.17-2.15,14.56,14.56,0,0,1-3-4.7L276,14h-2.38V11.88h4.18V9.32h-4.47V7.21h4.47V4.08h2.3V7.21h5V9.32h-5v2.57h2.55l1.63.41a14,14,0,0,1-3.68,6.93A14.31,14.31,0,0,0,285.34,21.24Zm-6.41-3.35A10.39,10.39,0,0,0,281.45,14h-5.11A11.33,11.33,0,0,0,278.93,17.88Z"/>
      <path d="M294.26,20.45V16h-6V13.87h6V10h-7.37V7.91h8.67a22.92,22.92,0,0,0-3.31-2.48L293.72,4a22.83,22.83,0,0,1,4.22,3l-1,.91h7.28V10h-7.53v3.83h6.21V16h-6.21v4.47H305V22.6H286.09V20.45Z"/>
      <path d="M325.27,20.68v1.86H315.15v.75H313v-7q-.56.71-1.18,1.37l-1.12-1.51v7.16h-2.19V13.39A23.75,23.75,0,0,1,307,15.65l-1.26-2a27,27,0,0,0,4.35-9.62l2.17.5a33.66,33.66,0,0,1-1.55,4.53v6.62a17.4,17.4,0,0,0,3.66-6.39l2.11.52a16.89,16.89,0,0,1-.75,1.94h2.07c.33-.87.62-1.74.81-2.4l2.21.44c-.25.6-.56,1.28-.89,2h4.72v1.8h-4.49v1.26H324v1.59h-3.91v1.3H324v1.61h-3.91v1.32ZM314.4,5.08V7.5h2.83V4.06h2.19V7.5h3V5.08h2.13V9.32H312.35V5.08ZM318,14.84V13.58h-2.81v1.26Zm0,2.9v-1.3h-2.81v1.3Zm0,2.94V19.35h-2.81v1.32Z"/>
      <path d="M332.92,22.56v.72h-2.26V16.23c-1,.39-2.11.75-3.23,1.08-.54-.66-1-1.2-1.47-1.76a37.26,37.26,0,0,0,8.77-3.39H326.2V10.23h7.51v-2h-5.09V6.36h5.09V4.08H336V6.36h4.3V8a21.05,21.05,0,0,0,2.36-2.88l1.84,1a23.91,23.91,0,0,1-3.64,4.14h4.57v1.92h-7a24.32,24.32,0,0,1-2.23,1.45h6.19v9.68h-2.3v-.72Zm7.16-5.42V15.55h-7.16v1.59Zm0,3.5V19h-7.16v1.68Zm-2.36-10.41a20.67,20.67,0,0,0,2.28-2h-4v2Z"/>
      <path d="M356.85,14.37h1c-.15,5.3-.33,8-1,8.52a2,2,0,0,1-1.1.31c-.35,0-1.18,0-1.63,0l-.23-1.82c.35,0,1,0,1.24,0a.4.4,0,0,0,.29-.08c.25-.19.39-1.82.5-5.13h-1.28c-.29,3-.91,5.44-2.4,7.08l-1.57-1.14c1.28-1.37,1.84-3.43,2.09-5.94h-1.51v-1.8h1.64c0-.64.06-1.3.06-2l.83,0-1.39-1.26h-1.86V23.28h-2.15V11.16h-2.15v-2h2.15V4.08h2.15V9.15h1.9V11a6.32,6.32,0,0,0,3.77-2.92h-3.66V6.19h4.32a12.93,12.93,0,0,0,.31-2.11l2.09.06c-.08.72-.17,1.41-.29,2h5.34c-.23,3.54-.54,5.11-1.24,5.46a3.08,3.08,0,0,1-1.2.23c-.41,0-1.39,0-1.92,0L359.67,10c.48,0,1.22,0,1.57,0a.51.51,0,0,0,.29-.06c.23-.1.37-.66.52-1.9h-3.6a7.35,7.35,0,0,1-4.53,4.37l.93,0c0,.64,0,1.28-.08,1.9h2.09Zm6.89,0H365c-.15,5.34-.29,8.11-1,8.61a2.19,2.19,0,0,1-1.14.29c-.35,0-1.18,0-1.66,0l-.25-1.9c.37,0,1,0,1.24,0a.43.43,0,0,0,.31-.08c.23-.21.33-1.82.41-5.13h-1.49c-.29,3-.91,5.48-2.4,7.12l-1.63-1c1.34-1.39,1.9-3.52,2.17-6.08h-1.41v-1.8h1.53c0-.64,0-1.3.06-2l1.88.06c0,.64,0,1.28-.08,1.9h2.17Z"/>
      <path d="M381.3,12.11H370.21V10.89a19.18,19.18,0,0,1-3,1.53l-1.32-1.94a18.58,18.58,0,0,0,8.61-6.39h2.15a20.24,20.24,0,0,0,8.86,6.39l-1.43,2A23.91,23.91,0,0,1,381.3,11ZM370.1,20.39c.79-1.55,1.55-3.21,2.09-4.55H367v-2h17.36v2h-9.7c-.6,1.32-1.37,2.9-2.19,4.43,2.44-.14,5.07-.31,7.28-.48-.68-.81-1.47-1.64-2.32-2.46l1.76-1.1a29.92,29.92,0,0,1,5,5.86l-2,1.22a18.18,18.18,0,0,0-1.1-1.74c-4.1.41-10.18.91-13.66,1.2l-.5-2.23Zm9.77-10.31a24.17,24.17,0,0,1-4.28-4,22.43,22.43,0,0,1-4.18,4Z"/>
    </g>
  </g>
  <g>
    <path d="M69.37,147.76l-5.84-17.52H28.35l-6,17.52H2.21l36-99H53.38l36.15,99ZM46.28,78,33.77,114H58.38Z"/>
    <path class="cls-1" d="M104.27,175.93H94V160.74h7c4.59,0,6.4-2.21,6.4-6.49V77H125.4v78.31C125.4,165.57,119.14,175.93,104.27,175.93Z"/>
    <path d="M213.82,137.75c-7,7-15.43,10.84-26.7,10.84s-19.88-3.89-26.84-10.84c-10-10-9.73-22.39-9.73-39.49s-.28-29.48,9.73-39.49c7-7,15.57-10.85,26.84-10.85s19.74,3.9,26.7,10.85c10,10,9.87,22.39,9.87,39.49S223.83,127.74,213.82,137.75ZM199.5,70.45a16,16,0,0,0-12.37-5.28,16.35,16.35,0,0,0-12.51,5.28c-3.76,4.17-4.73,8.76-4.73,27.81s1,23.63,4.73,27.81a16.36,16.36,0,0,0,12.51,5.29,16,16,0,0,0,12.37-5.29c3.77-4.17,4.87-8.76,4.87-27.81S203.26,74.63,199.5,70.45Z"/>
    <path d="M277.92,148.59a36.47,36.47,0,0,1-26.7-10.84c-10-10-9.73-22.39-9.73-39.49s-.28-29.48,9.73-39.49a36.48,36.48,0,0,1,26.7-10.85c12.65,0,20.44,4.45,27.53,11.4L292.66,72.12c-4.31-4.31-7.78-7-14.74-7-5.28,0-9.46,1.95-12.23,5.14-3.76,4.17-4.87,8.9-4.87,28s1.11,23.77,4.87,27.95c2.78,3.2,7,5.15,12.23,5.15,7,0,10.43-2.65,14.74-7l12.79,12.79C298.36,144.15,290.58,148.59,277.92,148.59Z"/>
    <path d="M357.45,148.59a36.45,36.45,0,0,1-26.69-10.84c-10-10-9.74-22.39-9.74-39.49s-.28-29.48,9.74-39.49a36.46,36.46,0,0,1,26.69-10.85c12.66,0,20.44,4.45,27.53,11.4L372.19,72.12c-4.31-4.31-7.78-7-14.74-7-5.28,0-9.46,1.95-12.23,5.14-3.76,4.17-4.87,8.9-4.87,28s1.11,23.77,4.87,27.95c2.77,3.2,7,5.15,12.23,5.15,7,0,10.43-2.65,14.74-7L385,137.19C377.89,144.15,370.11,148.59,357.45,148.59Z"/>
    <path class="cls-1" d="M136.7,44.06a5.41,5.41,0,0,0-3.86,9.26l-9.52,4.51-6.07-9.27a5.45,5.45,0,0,0,4.17-5.31,5.38,5.38,0,0,0-5.4-5.4,5.42,5.42,0,0,0-.81,10.79l-6,9.19-9.32-4.41a5.48,5.48,0,0,0,1.69-4,5.37,5.37,0,0,0-5.4-5.4,5.43,5.43,0,0,0-5.47,5.4,5.49,5.49,0,0,0,5.47,5.47,5.28,5.28,0,0,0,2.49-.64l5.71,17.79h23.79l5.77-17.95a5.42,5.42,0,1,0,2.79-10.07Z"/>
  </g>
</svg>
